# xmcd
#
# Track frame offsets: 
#        150
#        17442
#        39207
#        62975
#        77750
#        93257
#        115215
#        129950
#        147235
#        168702
#        189052
#        201687
#        232692
#        248677
#        261022
#        276152
#
# Disc length: 3906 seconds
#
# Revision: 1
# Processed by: cddbd v1.5.2PL0 Copyright (c) Steve Scherf et al.
# Submitted via: ExactAudioCopyFreeDBPlugin 1.0
#
DISCID=d00f4010
DTITLE=Various Artist - Can U Dig?! [MusicSpace.com]
DYEAR=2005
DGENRE=Soul
TTITLE0=Charles Wright and The Watts 103rd Street Rhythm Band - Express 
TTITLE0=Yourself
TTITLE1=The Staples Singers - Respect Yourself
TTITLE2=Billy Paul - Am I Black Enough for You?
TTITLE3=Curtis Mayfield - Freddie's Dead
TTITLE4=Edwin Starr - War
TTITLE5=Philadelphia International Allstars - Let's Clean Up the Ghett
TTITLE5=o
TTITLE6=The Undisputed Truth - Smiling Faces Sometimes
TTITLE7=Marvin Gaye - Trouble Man
TTITLE8=Willie Hutch - Brother's Gonna Work it Out
TTITLE9=The Ohio Players - Fire
TTITLE10=Wilson Pickett - Engine #9
TTITLE11=The Temptations - Papa Was a Rolling Stone
TTITLE12=Eddie Kendricks - Keep on Truckin'
TTITLE13=Jean Knight - Mr. Big Stuff
TTITLE14=Lyn Collins - Think About It
TTITLE15=Bill Withers - Use Me
EXTD=
EXTT0=
EXTT1=
EXTT2=
EXTT3=
EXTT4=
EXTT5=
EXTT6=
EXTT7=
EXTT8=
EXTT9=
EXTT10=
EXTT11=
EXTT12=
EXTT13=
EXTT14=
EXTT15=
PLAYORDER=
